<svg width="152" height="61" viewBox="0 0 152 61" fill="none" xmlns="http://www.w3.org/2000/svg">
<path d="M1.47648 35.0104C1.1002 35.0104 0.775221 34.8789 0.501558 34.6159C0.227896 34.3529 0.0910645 34.0406 0.0910645 33.679V1.82449C0.0910645 1.46288 0.227896 1.15058 0.501558 0.887587C0.775221 0.624598 1.1002 0.493104 1.47648 0.493104H9.58374C10.5416 0.493104 11.277 0.936897 11.7901 1.82449L19.2304 13.659L26.6706 1.82449C27.1837 0.936897 27.9191 0.493104 28.877 0.493104H36.9842C37.3605 0.493104 37.6855 0.624598 37.9592 0.887587C38.2328 1.15058 38.3696 1.46288 38.3696 1.82449V33.679C38.3696 34.0406 38.2328 34.3529 37.9592 34.6159C37.6855 34.8789 37.3605 35.0104 36.9842 35.0104H27.6968C27.3205 35.0104 26.9955 34.8789 26.7219 34.6159C26.4482 34.3529 26.3114 34.0406 26.3114 33.679V20.168L22.9248 25.4935C22.6853 25.8551 22.4117 26.151 22.1038 26.3811C21.8302 26.6112 21.471 26.7262 21.0263 26.7262H17.4344C16.9897 26.7262 16.6135 26.6112 16.3056 26.3811C16.0319 26.151 15.7754 25.8551 15.5359 25.4935L12.1493 20.168V33.679C12.1493 34.0406 12.0125 34.3529 11.7388 34.6159C11.4652 34.8789 11.1402 35.0104 10.7639 35.0104H1.47648Z" fill="#00D1B7"/>
<path d="M42.3435 35.0104C42.0356 35.0104 41.762 34.9118 41.5225 34.7145C41.3173 34.4844 41.2146 34.2214 41.2146 33.9256C41.2146 33.7941 41.2317 33.679 41.266 33.5804L52.7085 2.12035C52.8453 1.69299 53.1019 1.31494 53.4782 0.986207C53.8544 0.657472 54.3676 0.493104 55.0175 0.493104H66.1522C66.8021 0.493104 67.3152 0.657472 67.6915 0.986207C68.0678 1.31494 68.3244 1.69299 68.4612 2.12035L79.9037 33.5804C79.9379 33.679 79.955 33.7941 79.955 33.9256C79.955 34.2214 79.8353 34.4844 79.5959 34.7145C79.3906 34.9118 79.134 35.0104 78.8262 35.0104H69.3335C68.3073 35.0104 67.6402 34.5995 67.3323 33.7776L66.1009 30.5231H55.0688L53.8373 33.7776C53.5295 34.5995 52.8624 35.0104 51.8362 35.0104H42.3435ZM63.484 20.9076L60.5592 11.7359L57.6857 20.9076H63.484Z" fill="#00D1B7"/>
<path d="M84.1566 35.0104C83.7803 35.0104 83.4553 34.8789 83.1817 34.6159C82.908 34.3529 82.7712 34.0406 82.7712 33.679V1.82449C82.7712 1.46288 82.908 1.15058 83.1817 0.887587C83.4553 0.624598 83.7803 0.493104 84.1566 0.493104H99.3449C104.271 0.493104 108.119 1.5615 110.89 3.69828C113.661 5.80219 115.046 8.72794 115.046 12.4755C115.046 14.6123 114.55 16.5026 113.558 18.1462C112.566 19.757 111.215 21.0884 109.505 22.1404L115.816 33.3831C115.919 33.5804 115.97 33.7612 115.97 33.9256C115.97 34.2214 115.85 34.4844 115.611 34.7145C115.405 34.9118 115.149 35.0104 114.841 35.0104H104.322C103.706 35.0104 103.21 34.8789 102.834 34.6159C102.492 34.32 102.253 34.0077 102.116 33.679L97.7029 24.2607H95.5991V33.679C95.5991 34.0406 95.4623 34.3529 95.1886 34.6159C94.9149 34.8789 94.59 35.0104 94.2137 35.0104H84.1566ZM99.3449 14.8917C100.097 14.8917 100.679 14.6616 101.089 14.2014C101.5 13.7083 101.705 13.1001 101.705 12.3769C101.705 11.6537 101.5 11.0291 101.089 10.5031C100.713 9.94427 100.132 9.66484 99.3449 9.66484H95.5991V14.8917H99.3449Z" fill="#00D1B7"/>
<path d="M134.785 35.5035C131.159 35.5035 128.08 35.0268 125.549 34.0735C123.052 33.1202 121.17 31.8545 119.904 30.2766C118.639 28.6658 117.972 26.907 117.903 25.0004C117.903 24.7045 118.006 24.458 118.211 24.2607C118.451 24.0306 118.724 23.9156 119.032 23.9156H128.781C129.26 23.9156 129.637 23.9813 129.91 24.1128C130.218 24.2114 130.577 24.4251 130.988 24.7538C131.98 25.5099 133.245 25.888 134.785 25.888C135.948 25.888 136.872 25.7729 137.556 25.5428C138.274 25.2798 138.633 24.9346 138.633 24.5073C138.633 23.9156 138.171 23.4718 137.248 23.1759C136.324 22.8472 134.58 22.5184 132.014 22.1897C123.188 21.072 118.776 17.4559 118.776 11.3414C118.776 9.13886 119.426 7.18288 120.725 5.47346C122.06 3.73115 123.907 2.38334 126.267 1.43C128.627 0.476667 131.347 0 134.426 0C137.641 0 140.463 0.525977 142.892 1.57793C145.321 2.62989 147.185 3.96127 148.485 5.57208C149.785 7.15001 150.469 8.69507 150.538 10.2073C150.538 10.5031 150.418 10.7661 150.178 10.9962C149.973 11.1935 149.734 11.2921 149.46 11.2921H139.198C138.719 11.2921 138.342 11.2428 138.069 11.1442C137.795 11.0127 137.487 10.799 137.145 10.5031C136.427 9.91139 135.52 9.61553 134.426 9.61553C132.784 9.61553 131.963 10.0758 131.963 10.9962C131.963 11.4893 132.356 11.9002 133.143 12.229C133.964 12.5577 135.469 12.8536 137.658 13.1166C141.079 13.5439 143.816 14.185 145.868 15.0397C147.955 15.8944 149.46 17.045 150.384 18.4914C151.341 19.905 151.82 21.6966 151.82 23.8662C151.82 26.2003 151.085 28.2549 149.614 30.03C148.143 31.7723 146.108 33.1202 143.508 34.0735C140.942 35.0268 138.035 35.5035 134.785 35.5035Z" fill="#00D1B7"/>
<path d="M7.87586 60.0262C5.51623 60.0262 3.64102 59.5306 2.25025 58.5395C0.859469 57.5333 0.1172 55.9941 0.02344 53.9217C0.0078133 53.5162 0 52.8555 0 51.9394C0 51.0084 0.0078133 50.3326 0.02344 49.9121C0.1172 47.8998 0.875095 46.3831 2.29713 45.3619C3.71916 44.3257 5.57873 43.8076 7.87586 43.8076C9.28226 43.8076 10.5715 44.0103 11.7435 44.4158C12.9311 44.8213 13.8921 45.4595 14.6266 46.3305C15.3767 47.1865 15.7595 48.2677 15.7752 49.5742C15.7752 49.7094 15.7205 49.8295 15.6111 49.9346C15.5173 50.0247 15.4001 50.0698 15.2595 50.0698H10.4777C10.2277 50.0698 10.0402 50.0247 9.91515 49.9346C9.80576 49.8445 9.70419 49.6718 9.61042 49.4165C9.43853 48.966 9.21194 48.6507 8.93066 48.4705C8.64938 48.2903 8.28997 48.2002 7.85242 48.2002C7.30549 48.2002 6.88357 48.3428 6.58666 48.6281C6.28975 48.8985 6.13348 49.364 6.11786 50.0247C6.10223 50.4302 6.09442 51.0534 6.09442 51.8944C6.09442 52.7354 6.10223 53.3736 6.11786 53.8091C6.13348 54.4698 6.28975 54.9429 6.58666 55.2282C6.88357 55.4985 7.30549 55.6337 7.85242 55.6337C8.74314 55.6337 9.32914 55.2282 9.61042 54.4173C9.68856 54.162 9.78232 53.9893 9.89171 53.8992C10.0167 53.8091 10.2121 53.764 10.4777 53.764H15.2595C15.4001 53.764 15.5173 53.8166 15.6111 53.9217C15.7205 54.0118 15.7752 54.1244 15.7752 54.2596C15.7595 55.5661 15.3767 56.6548 14.6266 57.5258C13.8921 58.3818 12.9311 59.0125 11.7435 59.418C10.5715 59.8235 9.28226 60.0262 7.87586 60.0262Z" fill="white"/>
<path d="M25.0433 60.0262C22.6993 60.0262 20.8319 59.5081 19.4412 58.4719C18.0504 57.4357 17.3081 55.9265 17.2143 53.9442C17.1987 53.5388 17.1909 52.8855 17.1909 51.9845C17.1909 51.0684 17.1987 50.4002 17.2143 49.9797C17.2612 48.6882 17.6128 47.5769 18.2691 46.6459C18.9411 45.7148 19.8553 45.009 21.0116 44.5284C22.168 44.0479 23.5119 43.8076 25.0433 43.8076C26.5747 43.8076 27.9186 44.0479 29.075 44.5284C30.2314 45.009 31.1377 45.7148 31.7941 46.6459C32.466 47.5769 32.8254 48.6882 32.8723 49.9797C32.9036 50.8207 32.9192 51.4889 32.9192 51.9845C32.9192 52.4801 32.9036 53.1333 32.8723 53.9442C32.7785 55.9265 32.0363 57.4357 30.6455 58.4719C29.2547 59.5081 27.3873 60.0262 25.0433 60.0262ZM25.0433 55.6337C25.5746 55.6337 25.9887 55.4835 26.2856 55.1832C26.5982 54.8828 26.7623 54.4248 26.7779 53.8091C26.8091 52.9381 26.8248 52.2999 26.8248 51.8944C26.8248 51.4589 26.8091 50.8357 26.7779 50.0247C26.7623 49.409 26.5982 48.951 26.2856 48.6507C25.9731 48.3503 25.559 48.2002 25.0433 48.2002C24.5276 48.2002 24.1135 48.3503 23.801 48.6507C23.4885 48.951 23.3244 49.409 23.3088 50.0247C23.2931 50.4302 23.2853 51.0534 23.2853 51.8944C23.2853 52.7354 23.2931 53.3736 23.3088 53.8091C23.3244 54.4248 23.4807 54.8828 23.7776 55.1832C24.0901 55.4835 24.512 55.6337 25.0433 55.6337Z" fill="white"/>
<path d="M35.6661 59.8009C35.4942 59.8009 35.3457 59.7409 35.2207 59.6207C35.0957 59.5006 35.0332 59.3579 35.0332 59.1928V44.6411C35.0332 44.4759 35.0957 44.3332 35.2207 44.2131C35.3457 44.0929 35.4942 44.0329 35.6661 44.0329H40.3541C40.526 44.0329 40.6744 44.0929 40.7994 44.2131C40.9245 44.3332 40.987 44.4759 40.987 44.6411V55.1832H47.4799C47.6518 55.1832 47.8002 55.2432 47.9252 55.3634C48.0502 55.4835 48.1127 55.6262 48.1127 55.7914V59.1928C48.1127 59.3579 48.0502 59.5006 47.9252 59.6207C47.8002 59.7409 47.6518 59.8009 47.4799 59.8009H35.6661Z" fill="white"/>
<path d="M50.339 59.8009C50.1671 59.8009 50.0187 59.7409 49.8936 59.6207C49.7686 59.5006 49.7061 59.3579 49.7061 59.1928V44.6411C49.7061 44.4759 49.7686 44.3332 49.8936 44.2131C50.0187 44.0929 50.1671 44.0329 50.339 44.0329H55.027C55.1989 44.0329 55.3474 44.0929 55.4724 44.2131C55.5974 44.3332 55.6599 44.4759 55.6599 44.6411V55.1832H62.1528C62.3247 55.1832 62.4731 55.2432 62.5981 55.3634C62.7232 55.4835 62.7857 55.6262 62.7857 55.7914V59.1928C62.7857 59.3579 62.7232 59.5006 62.5981 59.6207C62.4731 59.7409 62.3247 59.8009 62.1528 59.8009H50.339Z" fill="white"/>
<path d="M65.0119 59.8009C64.84 59.8009 64.6916 59.7409 64.5666 59.6207C64.4416 59.5006 64.379 59.3579 64.379 59.1928V44.6411C64.379 44.4759 64.4416 44.3332 64.5666 44.2131C64.6916 44.0929 64.84 44.0329 65.0119 44.0329H77.0367C77.2086 44.0329 77.357 44.0929 77.482 44.2131C77.6071 44.3332 77.6696 44.4759 77.6696 44.6411V47.8172C77.6696 47.9824 77.6071 48.1251 77.482 48.2452C77.357 48.3653 77.2086 48.4254 77.0367 48.4254H70.0047V49.8445H76.521C76.6929 49.8445 76.8413 49.9046 76.9664 50.0247C77.0914 50.1449 77.1539 50.2875 77.1539 50.4527V53.3811C77.1539 53.5463 77.0914 53.6889 76.9664 53.8091C76.8413 53.9292 76.6929 53.9893 76.521 53.9893H70.0047V55.4084H77.2242C77.3961 55.4084 77.5445 55.4685 77.6696 55.5886C77.7946 55.7088 77.8571 55.8514 77.8571 56.0166V59.1928C77.8571 59.3579 77.7946 59.5006 77.6696 59.6207C77.5445 59.7409 77.3961 59.8009 77.2242 59.8009H65.0119Z" fill="white"/>
<path d="M87.3294 60.0262C84.9698 60.0262 83.0946 59.5306 81.7038 58.5395C80.313 57.5333 79.5708 55.9941 79.477 53.9217C79.4614 53.5162 79.4536 52.8555 79.4536 51.9394C79.4536 51.0084 79.4614 50.3326 79.477 49.9121C79.5708 47.8998 80.3287 46.3831 81.7507 45.3619C83.1727 44.3257 85.0323 43.8076 87.3294 43.8076C88.7358 43.8076 90.025 44.0103 91.197 44.4158C92.3847 44.8213 93.3457 45.4595 94.0802 46.3305C94.8302 47.1865 95.2131 48.2677 95.2287 49.5742C95.2287 49.7094 95.174 49.8295 95.0647 49.9346C94.9709 50.0247 94.8537 50.0698 94.7131 50.0698H89.9313C89.6813 50.0698 89.4937 50.0247 89.3687 49.9346C89.2593 49.8445 89.1578 49.6718 89.064 49.4165C88.8921 48.966 88.6655 48.6507 88.3842 48.4705C88.103 48.2903 87.7435 48.2002 87.306 48.2002C86.7591 48.2002 86.3371 48.3428 86.0402 48.6281C85.7433 48.8985 85.5871 49.364 85.5714 50.0247C85.5558 50.4302 85.548 51.0534 85.548 51.8944C85.548 52.7354 85.5558 53.3736 85.5714 53.8091C85.5871 54.4698 85.7433 54.9429 86.0402 55.2282C86.3371 55.4985 86.7591 55.6337 87.306 55.6337C88.1967 55.6337 88.7827 55.2282 89.064 54.4173C89.1421 54.162 89.2359 53.9893 89.3453 53.8992C89.4703 53.8091 89.6656 53.764 89.9313 53.764H94.7131C94.8537 53.764 94.9709 53.8166 95.0647 53.9217C95.174 54.0118 95.2287 54.1244 95.2287 54.2596C95.2131 55.5661 94.8302 56.6548 94.0802 57.5258C93.3457 58.3818 92.3847 59.0125 91.197 59.418C90.025 59.8235 88.7358 60.0262 87.3294 60.0262Z" fill="white"/>
<path d="M101.356 59.8009C101.184 59.8009 101.036 59.7409 100.911 59.6207C100.786 59.5006 100.723 59.3579 100.723 59.1928V48.8759H96.832C96.6601 48.8759 96.5116 48.8159 96.3866 48.6957C96.2616 48.5756 96.1991 48.4329 96.1991 48.2677V44.6411C96.1991 44.4759 96.2616 44.3332 96.3866 44.2131C96.5116 44.0929 96.6601 44.0329 96.832 44.0329H110.568C110.74 44.0329 110.888 44.0929 111.013 44.2131C111.138 44.3332 111.201 44.4759 111.201 44.6411V48.2677C111.201 48.4329 111.138 48.5756 111.013 48.6957C110.888 48.8159 110.74 48.8759 110.568 48.8759H106.677V59.1928C106.677 59.3579 106.614 59.5006 106.489 59.6207C106.364 59.7409 106.216 59.8009 106.044 59.8009H101.356Z" fill="white"/>
<path d="M113.517 59.8009C113.345 59.8009 113.197 59.7409 113.072 59.6207C112.947 59.5006 112.884 59.3579 112.884 59.1928V44.6411C112.884 44.4759 112.947 44.3332 113.072 44.2131C113.197 44.0929 113.345 44.0329 113.517 44.0329H118.299C118.471 44.0329 118.619 44.0929 118.744 44.2131C118.869 44.3332 118.932 44.4759 118.932 44.6411V59.1928C118.932 59.3579 118.869 59.5006 118.744 59.6207C118.619 59.7409 118.471 59.8009 118.299 59.8009H113.517Z" fill="white"/>
<path d="M126.062 59.8009C125.765 59.8009 125.53 59.7259 125.358 59.5757C125.186 59.4255 125.069 59.2528 125.007 59.0576L120.6 44.6861L120.577 44.5284C120.577 44.3933 120.623 44.2807 120.717 44.1906C120.827 44.0854 120.952 44.0329 121.092 44.0329H125.452C125.749 44.0329 125.983 44.108 126.155 44.2581C126.327 44.4083 126.444 44.581 126.507 44.7762L128.734 53.1558L130.961 44.7762C131.023 44.581 131.14 44.4083 131.312 44.2581C131.484 44.108 131.718 44.0329 132.015 44.0329H136.375C136.516 44.0329 136.633 44.0854 136.727 44.1906C136.836 44.2807 136.891 44.3933 136.891 44.5284L136.867 44.6861L132.461 59.0576C132.398 59.2528 132.281 59.4255 132.109 59.5757C131.937 59.7259 131.703 59.8009 131.406 59.8009H126.062Z" fill="white"/>
<path d="M139.155 59.8009C138.983 59.8009 138.835 59.7409 138.709 59.6207C138.584 59.5006 138.522 59.3579 138.522 59.1928V44.6411C138.522 44.4759 138.584 44.3332 138.709 44.2131C138.835 44.0929 138.983 44.0329 139.155 44.0329H151.18C151.351 44.0329 151.5 44.0929 151.625 44.2131C151.75 44.3332 151.812 44.4759 151.812 44.6411V47.8172C151.812 47.9824 151.75 48.1251 151.625 48.2452C151.5 48.3653 151.351 48.4254 151.18 48.4254H144.148V49.8445H150.664C150.836 49.8445 150.984 49.9046 151.109 50.0247C151.234 50.1449 151.297 50.2875 151.297 50.4527V53.3811C151.297 53.5463 151.234 53.6889 151.109 53.8091C150.984 53.9292 150.836 53.9893 150.664 53.9893H144.148V55.4084H151.367C151.539 55.4084 151.687 55.4685 151.812 55.5886C151.937 55.7088 152 55.8514 152 56.0166V59.1928C152 59.3579 151.937 59.5006 151.812 59.6207C151.687 59.7409 151.539 59.8009 151.367 59.8009H139.155Z" fill="white"/>
</svg>
